<mxfile host="app.diagrams.net" modified="2024-04-25T06:06:33.350Z" agent="Mozilla/5.0 (Windows NT 10.0; Win64; x64) AppleWebKit/537.36 (KHTML, like Gecko) Chrome/123.0.0.0 Safari/537.36" etag="8GP7o82QUPzD0h-9qygo" version="24.3.0" type="google">
  <diagram name="Page-1" id="H1vM2g0KTqb1IAk7o_UM">
    <mxGraphModel grid="1" page="1" gridSize="10" guides="1" tooltips="1" connect="1" arrows="1" fold="1" pageScale="1" pageWidth="827" pageHeight="1169" math="0" shadow="0">
      <root>
        <mxCell id="0" />
        <mxCell id="1" parent="0" />
        <mxCell id="55zy27JpPQQUELeKXvjT-1" value="&lt;b&gt;&lt;font style=&quot;font-size: 14px;&quot;&gt;Driver&lt;/font&gt;&lt;/b&gt;" style="rounded=0;whiteSpace=wrap;html=1;" vertex="1" parent="1">
          <mxGeometry x="300" y="200" width="100" height="50" as="geometry" />
        </mxCell>
        <mxCell id="55zy27JpPQQUELeKXvjT-2" value="&lt;b&gt;&lt;font style=&quot;font-size: 14px;&quot;&gt;Accident Alert App&lt;/font&gt;&lt;/b&gt;" style="ellipse;whiteSpace=wrap;html=1;" vertex="1" parent="1">
          <mxGeometry x="470" y="180" width="90" height="90" as="geometry" />
        </mxCell>
        <mxCell id="55zy27JpPQQUELeKXvjT-13" value="" style="endArrow=classic;html=1;curved=1;exitX=0.62;exitY=-0.008;exitDx=0;exitDy=0;entryX=0.249;entryY=0.076;entryDx=0;entryDy=0;entryPerimeter=0;exitPerimeter=0;" edge="1" parent="1" source="55zy27JpPQQUELeKXvjT-1" target="55zy27JpPQQUELeKXvjT-2">
          <mxGeometry width="50" height="50" relative="1" as="geometry">
            <mxPoint x="420" y="240" as="sourcePoint" />
            <mxPoint x="470" y="190" as="targetPoint" />
            <Array as="points">
              <mxPoint x="390" y="170" />
              <mxPoint x="430" y="160" />
              <mxPoint x="470" y="170" />
            </Array>
          </mxGeometry>
        </mxCell>
        <mxCell id="55zy27JpPQQUELeKXvjT-16" value="" style="endArrow=classic;html=1;entryX=0.644;entryY=1.048;entryDx=0;entryDy=0;curved=1;entryPerimeter=0;" edge="1" parent="1">
          <mxGeometry width="50" height="50" relative="1" as="geometry">
            <mxPoint x="485" y="258" as="sourcePoint" />
            <mxPoint x="359.4000000000001" y="250.39999999999998" as="targetPoint" />
            <Array as="points">
              <mxPoint x="425" y="308" />
            </Array>
          </mxGeometry>
        </mxCell>
        <mxCell id="55zy27JpPQQUELeKXvjT-17" value="&lt;b&gt;&lt;font style=&quot;font-size: 13px;&quot;&gt;Login_Details&amp;nbsp;&lt;/font&gt;&lt;/b&gt;" style="text;html=1;align=center;verticalAlign=middle;resizable=0;points=[];autosize=1;strokeColor=none;fillColor=none;" vertex="1" parent="1">
          <mxGeometry x="375" y="120" width="110" height="30" as="geometry" />
        </mxCell>
        <mxCell id="55zy27JpPQQUELeKXvjT-18" value="&lt;b&gt;&lt;font style=&quot;font-size: 13px;&quot;&gt;Response _message&lt;/font&gt;&lt;/b&gt;" style="text;html=1;align=center;verticalAlign=middle;resizable=0;points=[];autosize=1;strokeColor=none;fillColor=none;" vertex="1" parent="1">
          <mxGeometry x="355" y="280" width="150" height="30" as="geometry" />
        </mxCell>
      </root>
    </mxGraphModel>
  </diagram>
</mxfile>
